<svg width="19" height="18" viewBox="0 0 19 18" fill="none" xmlns="http://www.w3.org/2000/svg">
<path fill-rule="evenodd" clip-rule="evenodd" d="M8.49526 1.65829C8.55282 1.47575 8.66707 1.31632 8.82143 1.20315C8.97578 1.08998 9.16219 1.02896 9.35359 1.02896C9.54499 1.02896 9.7314 1.08998 9.88575 1.20315C10.0401 1.31632 10.1544 1.47575 10.2119 1.65829L11.7619 6.42495H16.7619C16.9602 6.41746 17.1554 6.47507 17.3178 6.58899C17.4802 6.7029 17.6009 6.86686 17.6614 7.0558C17.7218 7.24474 17.7188 7.44829 17.6527 7.63533C17.5865 7.82238 17.461 7.98263 17.2953 8.09162L13.2369 11.0333L14.7869 15.8083C14.8482 15.9902 14.8498 16.1869 14.7913 16.3697C14.7329 16.5526 14.6175 16.7119 14.4621 16.8245C14.3067 16.9371 14.1193 16.9971 13.9274 16.9957C13.7355 16.9943 13.549 16.9315 13.3953 16.8166L9.32859 13.8416L5.27026 16.7916C5.11651 16.9065 4.93006 16.9693 4.73813 16.9707C4.54619 16.9721 4.35883 16.9121 4.2034 16.7995C4.04797 16.6869 3.93261 16.5276 3.87418 16.3447C3.81574 16.1619 3.81729 15.9652 3.87859 15.7833L5.42859 11.0083L1.37026 8.06662C1.20449 7.95763 1.07897 7.79738 1.01286 7.61033C0.946747 7.42329 0.94369 7.21975 1.00415 7.0308C1.06461 6.84186 1.18527 6.6779 1.34769 6.56399C1.5101 6.45007 1.70535 6.39246 1.90359 6.39995H6.90359L8.49526 1.65829Z" stroke="#D1D1D1" stroke-width="1.5" stroke-linecap="round" stroke-linejoin="round"/>
</svg>
